<?xml version="1.0" encoding="utf-8"?>
<!-- Generator: Adobe Illustrator 21.1.0, SVG Export Plug-In . SVG Version: 6.00 Build 0)  -->
<svg version="1.1" id="Ebene_1" xmlns="http://www.w3.org/2000/svg" xmlns:xlink="http://www.w3.org/1999/xlink" x="0px" y="0px"
	 viewBox="0 0 141.7 141.7" style="enable-background:new 0 0 141.7 141.7;" xml:space="preserve">
<style type="text/css">
	.st0{fill:#D50F2E;}
	.st1{fill:#EDEDED;}
	.st2{fill:#FFFFFF;}
	.st3{opacity:0.6;fill:#FFFFFF;enable-background:new    ;}
	.st4{opacity:0.4;fill:#FFFFFF;enable-background:new    ;}
	.st5{opacity:0.8;fill:#FFFFFF;enable-background:new    ;}
</style>
<g>
	<g>
		<g>
			<g>
				<ellipse class="st0" cx="70.8" cy="70.9" rx="66.9" ry="66.9"/>
				<path class="st1" d="M70.8,141.7c-39,0-70.8-31.8-70.8-70.8S31.8,0,70.8,0s70.9,31.8,70.9,70.9S109.8,141.7,70.8,141.7z M70.8,8
					C36.2,8,8,36.2,8,70.9s28.2,62.8,62.8,62.8s62.8-28.2,62.8-62.8S105.4,8,70.8,8z"/>
			</g>
		</g>
	</g>
	<g>
		<path class="st2" d="M92.4,79.3l0.8-1.2h6.4v20.4h-6.4l-0.8-1.2H49.3l-0.8,1.2h-6.4V78h6.4l0.8,1.2h43.2L92.4,79.3L92.4,79.3z
			 M66.4,84.6V87l2,1.2l2-1.2v-2.4l-2-1.2L66.4,84.6z M72.5,84.6V87l2,1.2l2-1.2v-2.4l-2-1.2L72.5,84.6z M78.7,84.6V87l2,1.2l2-1.2
			v-2.4l-2-1.2L78.7,84.6z M84.9,84.6V87l2,1.2l2-1.2v-2.4l-2-1.2L84.9,84.6z M69.5,89.6V92l2,1.2l2-1.2v-2.4l-2-1.2L69.5,89.6z
			 M75.6,89.6V92l2,1.2l2-1.2v-2.4l-2-1.2L75.6,89.6z M81.8,89.6V92l2,1.2l2-1.2v-2.4l-2-1.2L81.8,89.6z M88,89.6V92l2,1.2l2-1.2
			v-2.4l-2-1.2L88,89.6z M53.9,83.9c-2.4,0-4.3,1.9-4.3,4.3s1.9,4.3,4.3,4.3c2.4,0,4.3-1.9,4.3-4.3S56.3,83.9,53.9,83.9z M53.9,90.6
			c-1.3,0-2.4-1.1-2.4-2.4s1.1-2.4,2.4-2.4s2.4,1.1,2.4,2.4C56.3,89.5,55.2,90.6,53.9,90.6z M92.4,56.9l0.8-1.2h6.4v20.4h-6.4
			l-0.8-1.2H49.3l-0.8,1.2h-6.4V55.7h6.4l0.8,1.2H92.4z M66.4,62.2v2.4l2,1.2l2-1.2v-2.4l-2-1.2L66.4,62.2z M72.5,62.2v2.4l2,1.2
			l2-1.2v-2.4l-2-1.2L72.5,62.2z M78.7,62.2v2.4l2,1.2l2-1.2v-2.4l-2-1.2L78.7,62.2z M84.9,62.2v2.4l2,1.2l2-1.2v-2.4l-2-1.2
			L84.9,62.2z M69.5,67.2v2.4l2,1.2l2-1.2v-2.4l-2-1.2L69.5,67.2z M75.6,67.2v2.4l2,1.2l2-1.2v-2.4l-2-1.2L75.6,67.2z M81.8,67.2
			v2.4l2,1.2l2-1.2v-2.4l-2-1.2L81.8,67.2z M88,67.2v2.4l2,1.2l2-1.2v-2.4L90,66L88,67.2z M53.9,61.5c-2.4,0-4.3,1.9-4.3,4.3
			s1.9,4.3,4.3,4.3c2.4,0,4.3-1.9,4.3-4.3S56.3,61.5,53.9,61.5z M53.9,68.2c-1.3,0-2.4-1.1-2.4-2.4s1.1-2.4,2.4-2.4s2.4,1.1,2.4,2.4
			C56.3,67.2,55.2,68.2,53.9,68.2z M92.4,34.5l0.8-1.2h6.4v20.4h-6.4l-0.8-1.2H49.3l-0.8,1.2h-6.4V33.3h6.4l0.8,1.2H92.4z
			 M66.4,39.8v2.4l2,1.2l2-1.2v-2.4l-2-1.2L66.4,39.8z M72.5,39.8v2.4l2,1.2l2-1.2v-2.4l-2-1.2L72.5,39.8z M78.7,39.8v2.4l2,1.2
			l2-1.2v-2.4l-2-1.2L78.7,39.8z M84.9,39.8v2.4l2,1.2l2-1.2v-2.4l-2-1.2L84.9,39.8z M69.5,44.8v2.4l2,1.2l2-1.2v-2.4l-2-1.2
			L69.5,44.8z M75.6,44.8v2.4l2,1.2l2-1.2v-2.4l-2-1.2L75.6,44.8z M81.8,44.8v2.4l2,1.2l2-1.2v-2.4l-2-1.2L81.8,44.8z M88,44.8v2.4
			l2,1.2l2-1.2v-2.4l-2-1.2L88,44.8z M53.9,39.1c-2.4,0-4.3,1.9-4.3,4.3c0,2.4,1.9,4.3,4.3,4.3c2.4,0,4.3-1.9,4.3-4.3
			C58.2,41.1,56.3,39.1,53.9,39.1z M53.9,45.9c-1.3,0-2.4-1.1-2.4-2.4c0-1.3,1.1-2.4,2.4-2.4s2.4,1.1,2.4,2.4
			C56.3,44.8,55.2,45.9,53.9,45.9z"/>
		<g>
			<path class="st2" d="M101.5,27.3H92h-2.2L89,28.5H52.6l-0.8-1.2h-2.2h-9.5h-4v4v69.2v4h4h9.5h2.2l0.8-1.2h15.8v4.9
				c-2,0.7-3.7,2.3-4.4,4.4h-3.3v4.9H64c1,2.8,3.7,4.8,6.8,4.8c3.1,0,5.8-2,6.8-4.8H81v-4.9h-3.3c-0.7-2-2.3-3.7-4.4-4.4v-4.9H89
				l0.8,1.2H92h9.5h4v-4V31.3v-4H101.5z M75,114.9c0,2.3-1.9,4.2-4.2,4.2s-4.2-1.9-4.2-4.2c0-2.3,1.9-4.2,4.2-4.2S75,112.6,75,114.9
				z M101.5,100.4H92l-0.8-1.2H50.4l-0.8,1.2h-9.5V31.3h9.5l0.8,1.2h40.9l0.8-1.2h9.5C101.5,31.3,101.5,100.4,101.5,100.4z"/>
			<rect x="44.1" y="112.5" class="st3" width="3.5" height="4.9"/>
			<rect x="55.2" y="112.5" class="st2" width="3.5" height="4.9"/>
			<rect x="38.6" y="112.5" class="st4" width="3.5" height="4.9"/>
			<rect x="49.6" y="112.5" class="st5" width="3.5" height="4.9"/>
			<rect x="94" y="112.5" class="st3" width="3.5" height="4.9"/>
			<rect x="99.5" y="112.5" class="st4" width="3.5" height="4.9"/>
			<rect x="88.5" y="112.5" class="st5" width="3.5" height="4.9"/>
			<rect x="82.9" y="112.5" class="st2" width="3.5" height="4.9"/>
		</g>
	</g>
</g>
</svg>
