<?xml version="1.0" encoding="utf-8"?>
<!-- Generator: Adobe Illustrator 21.1.0, SVG Export Plug-In . SVG Version: 6.00 Build 0)  -->
<svg version="1.1" id="Ebene_1" xmlns="http://www.w3.org/2000/svg" xmlns:xlink="http://www.w3.org/1999/xlink" x="0px" y="0px"
	 viewBox="0 0 141.7 141.7" style="enable-background:new 0 0 141.7 141.7;" xml:space="preserve">
<style type="text/css">
	.st0{fill:#FFFFFF;}
</style>
<g>
	<g>
		<g>
			<g>
				<g>
					<path class="st0" d="M70.8,141.7c-39,0-70.8-31.8-70.8-70.8S31.8,0,70.8,0s70.9,31.8,70.9,70.9S109.8,141.7,70.8,141.7z
						 M70.8,8C36.2,8,8,36.2,8,70.9s28.2,62.8,62.8,62.8s62.8-28.2,62.8-62.8S105.4,8,70.8,8z"/>
				</g>
			</g>
		</g>
	</g>
	<g>
		<path class="st0" d="M95.7,44.8c1.2,1,3,0.7,3.8-0.5c0.4-0.7,0.9-1.3,1.3-2c0.7-1.3,1.6-2.2,3.2-1.9c0.1,0,0.1-0.1,0.2-0.1
			c0.3-2.3,0.3-2.3,2.7-2.1c0.3,0,0.6,0.1,0.9,0c1.3-0.1,2.3,0.3,3.4,0.9c2.6,1.6,5.2,3.1,7.7,4.6c-0.2-0.3-0.4-0.6-0.5-0.9
			c0-0.1-0.1-0.1-0.1-0.2c-0.2-0.3-0.3-0.6-0.5-0.8c0-0.1-0.1-0.2-0.1-0.2c-0.2-0.3-0.3-0.5-0.5-0.8c-0.1-0.1-0.1-0.2-0.2-0.2
			c-0.2-0.3-0.4-0.5-0.5-0.8c-0.1-0.1-0.1-0.2-0.2-0.2c-0.2-0.3-0.4-0.5-0.6-0.8c0-0.1-0.1-0.1-0.1-0.2c-0.2-0.3-0.4-0.6-0.6-0.8
			c0,0-0.1-0.1-0.1-0.1c-1.6-2.1-3.4-4.2-5.3-6c-0.6-0.6-1.3-1.2-2-1.8c0,0,0,0,0,0c-0.3-0.3-0.6-0.5-0.9-0.8c-1,1-2,1.9-3.1,2.8
			c-0.5,0.4-1.2,0.7-1.8,0.7c-1.3,0-2.5-0.1-4.2-0.2c0.8,0.7,1.3,1.1,1.8,1.5c1.1,0.8,1.5,1.7,1.4,3.1c-0.1,0.9-0.4,1.2-1.3,1.2
			c-1.6,0-3.2,0.1-4.7,0.2c-0.3,0-0.8,0.3-0.9,0.5C92.8,41.5,93.3,42.9,95.7,44.8z"/>
		<path class="st0" d="M122.7,52.1c-0.7-2-1.5-3.9-2.5-5.8c-0.2-0.1-0.5-0.2-0.8-0.3c-0.3,0.9-0.6,1.9-0.9,2.8
			c-0.3,0.9-0.7,1.3-1.7,0.9c-1.9-0.7-3.8-1.3-5.7-1.8c-1-0.3-1.5-0.8-1.1-1.9c0.2-0.5,0.2-1.2,0.4-1.9c-2,0-3.8,0.1-5.7,0
			c-1.1-0.1-2.1,0.2-2.8,1c-1.7,1.8-3.8,2.4-6.1,2.6c-1.9,0.2-2.9,1.4-3,3.2c0,0.4-0.1,0.9-0.3,1.2H122.7z"/>
		<path class="st0" d="M97,28.8c-0.2,0.6-0.3,1.2-0.5,1.9c1.8,0.1,3.5,0.2,5.1,0.2c0.3,0,0.9-0.6,1-0.9c0.3-1.2,0.5-2.5,0.7-3.8
			c0,0,0,0,0,0c-1.5-1.1-3-2.1-4.7-3c0,0,0,0,0,0c-0.3-0.2-0.6-0.3-0.9-0.5c-0.1,0-0.1-0.1-0.2-0.1c-0.3-0.2-0.6-0.3-0.8-0.5
			c-0.1,0-0.1-0.1-0.2-0.1c-0.3-0.2-0.6-0.3-0.9-0.5c0.4,1.2,0.7,2.4,1.2,3.6C97.4,26.4,97.5,27.5,97,28.8z"/>
		<path class="st0" d="M61.1,21.7c1,0,2-0.1,3.2-0.3c-1.2-1.7-0.1-2.5,0.9-3.5c0.7-0.7,1.3-1.4,1.9-2.1c-3.6,0.2-7,0.8-10.4,1.7
			c1,1.2,2.1,2.4,3.2,3.5C60.2,21.4,60.6,21.7,61.1,21.7z"/>
		<path class="st0" d="M111.7,89.6c0,1.7-0.1,3.5-0.7,5.2c-0.2,0.5-0.2,1.1,0,1.5c1.2,2.3,2.8,5,4.1,7.4c0.4-0.5,0.7-1,1.1-1.5
			c0.1-0.1,0.1-0.2,0.2-0.3c0.1-0.2,0.3-0.4,0.4-0.6c0.1-0.1,0.2-0.2,0.2-0.4c0.1-0.2,0.3-0.4,0.4-0.6c0.1-0.1,0.2-0.2,0.2-0.4
			c0.1-0.2,0.3-0.4,0.4-0.6c0.1-0.1,0.1-0.2,0.2-0.3c0.3-0.4,0.5-0.9,0.8-1.3c0.1-0.1,0.1-0.2,0.2-0.3c0.1-0.2,0.2-0.4,0.3-0.6
			c0.1-0.1,0.2-0.3,0.2-0.4c0.1-0.2,0.2-0.4,0.3-0.6c0.1-0.2,0.2-0.3,0.2-0.5c0.1-0.2,0.2-0.4,0.3-0.6c0.1-0.2,0.1-0.3,0.2-0.5
			c0.2-0.4,0.3-0.7,0.5-1.1c0.1-0.2,0.2-0.4,0.2-0.5c0.1-0.2,0.2-0.4,0.2-0.6c0.1-0.2,0.2-0.4,0.2-0.5c0.1-0.2,0.2-0.4,0.2-0.6
			c0.1-0.2,0.1-0.4,0.2-0.6c0.1-0.2,0.1-0.4,0.2-0.6H111.7z"/>
		<path class="st0" d="M36,89.6c0.6,1.3,1,2.8,1.6,4.1c0.3,0.7,0.8,1.4,1.3,1.9c1.1,1,2.4,1.7,3.6,2.7c0.3,0.2,0.4,0.7,0.4,1.1
			c-0.3,3.6-0.6,7.3-0.9,10.9c-0.2,1.8-0.5,5-0.7,7.2c0,0,0,0,0,0c0.5,0.3,1,0.6,1.5,0.9c0.1,0.1,0.2,0.1,0.3,0.2
			c0.2,0.1,0.5,0.3,0.7,0.4c0.1,0.1,0.2,0.1,0.3,0.2c0.2,0.1,0.5,0.3,0.7,0.4c0,0,0,0,0,0c0.9,0.5,1.8,0.9,2.6,1.3
			c0.1,0,0.1,0,0.2,0.1c0.3,0.1,0.6,0.3,0.9,0.4l0,0c3.8-4.1,8.3-9.1,12.1-13.1c0.8-0.9,1.3-1.7,1.1-2.9c-0.1-0.9,0.3-1.5,1-1.9
			c1.3-0.8,2.5-1.7,3.8-2.5c1.2-0.7,1.8-1.7,2-3.1c0.3-1.7,0.4-3.6,1.7-5c1-1,1.6-2.1,1.9-3.2H36z"/>
		<path class="st0" d="M26.8,52.1c1.2-0.6,2.6-0.5,3.9-0.4c0.3,0,0.7,0.2,0.9,0.4h3.2c-0.3-2,0.3-3.7,2.2-5.1
			c0.3-0.2,0.6-0.6,0.9-0.9c0.9-0.8,1.4-1.8,1.2-3.1c0-0.4,0.2-1.3,0.4-1.3c1.6-0.4,1.3-1.5,1.2-2.6c-0.1-1.2,0.4-1.8,1.5-2.1
			c0.4-0.1,0.9-0.4,1.3-0.4c0.5,0,1.2,0,1.5,0.3c2,1.8,4.7,1.4,6-1c-1.1-2.3-3.6-1.8-5.4-2.7c0.8-0.2,1.6-0.2,2.4-0.3
			c0.7-0.1,1.5-0.2,1.9-0.7c1.1-1.2,2.4-1.8,4-2.1c0.4-0.1,0.8-0.2,1.4-0.4c-0.7-1.2-1.1-2.8-2.1-3.4c-2.3-1.3-3.7-3.1-4.2-5.6
			c0-0.2-0.1-0.3-0.2-0.5C35,26.3,24.1,37.8,19,52.1H26.8z"/>
	</g>
	<g>
		<g>
			<g>
				<path class="st0" d="M24.2,81.7L16.8,60h6.2l4.2,13.1L31.5,60h5.8l4.2,13.1L45.8,60h6.3l-7.4,21.7h-6.3l-4-11.8l-4,11.8H24.2z"
					/>
			</g>
			<g>
				<path class="st0" d="M60.6,81.7L53.2,60h6.2l4.2,13.1L67.9,60h5.8L78,73.1L82.2,60h6.3l-7.4,21.7h-6.3l-4-11.8l-4,11.8H60.6z"/>
			</g>
			<g>
				<path class="st0" d="M96.9,81.7L89.6,60h6.2l4.2,13.1l4.2-13.1h5.8l4.2,13.1l4.2-13.1h6.3l-7.4,21.7h-6.3l-4-11.8l-4,11.8H96.9z
					"/>
			</g>
		</g>
	</g>
</g>
</svg>
