<!--Generator: Adobe Illustrator 21.1.0, SVG Export Plug-In . SVG Version: 6.00 Build 0)--><svg id="Ebene_1" xmlns="http://www.w3.org/2000/svg" x="0px" y="0px" viewBox="0 0 141.7 141.7" style="enable-background:new 0 0 141.7 141.7;"><style>.st0{fill:#FFFFFF;}</style><g><g><path class="st0" d="M67.1,50.6c0,5.6-1.6,9.9-4.9,12.9c-3.3,3-8,4.6-14,4.6h-3.8v16.6H30.9v-50h17.3c6.3,0,11.1,1.4,14.2,4.1
			C65.6,41.6,67.1,45.6,67.1,50.6z M44.4,57.1h2.5c2,0,3.6-0.6,4.8-1.7c1.2-1.1,1.8-2.7,1.8-4.7c0-3.4-1.9-5.1-5.6-5.1h-3.5V57.1z"/><path class="st0" d="M116,84.7h-15.6l-9.7-15.6L81,84.7H65.7l16.6-25.6L66.7,34.7h15l9,15.4l8.7-15.4h15.4L99,60.2L116,84.7z"/><path class="st0" d="M35.6,97.8c3.1,0.8,4.8,2,4.8,4.5c0,2.9-2.2,4.6-5.4,4.6c-2.2,0-4.4-0.9-6.3-2.6l2-2.4
			c1.5,1.3,2.9,2.1,4.4,2.1c1.2,0,1.9-0.6,1.9-1.4c0-0.8-0.5-1.3-2.7-1.8c-3.1-0.8-4.9-1.7-4.9-4.6c0-3.1,2.5-4.5,5.2-4.5
			c1.9,0,4,0.7,5.5,1.9L38.5,96c-1.5-1.1-2.8-1.4-3.9-1.4c-1.1,0-1.8,0.6-1.8,1.4C32.8,96.8,33.3,97.2,35.6,97.8z"/><path class="st0" d="M53.8,95h-7.3v3h6.6v2.8h-6.6v3H54v2.9H43.2V92h10.6V95z"/><path class="st0" d="M66.2,101.5l3.7,5.2h-4l-3.3-4.7h-2.3v4.7h-3.3V92h5.6c4.6,0,6.3,1.5,6.3,4.9C69,99.4,68,100.8,66.2,101.5z
			 M62.8,94.9h-2.5v4.3h2.4c2.4,0,2.9-0.8,2.9-2.3C65.7,95.3,64.9,94.9,62.8,94.9z"/><path class="st0" d="M81,92h3.5l-5.9,14.7h-2.8L70,92h3.5l3.7,9.3L81,92z"/><path class="st0" d="M96.9,95h-7.3v3h6.6v2.8h-6.6v3h7.5v2.9H86.4V92h10.6V95z"/><path class="st0" d="M109.3,101.5l3.7,5.2h-4l-3.3-4.7h-2.3v4.7h-3.3V92h5.6c4.6,0,6.3,1.5,6.3,4.9
			C112.1,99.4,111.2,100.8,109.3,101.5z M106,94.9h-2.5v4.3h2.4c2.4,0,2.9-0.8,2.9-2.3C108.8,95.3,108,94.9,106,94.9z"/></g><g><g><g><g><g><path class="st0" d="M70.8,141.7c-39,0-70.8-31.8-70.8-70.8S31.8,0,70.8,0s70.9,31.8,70.9,70.9S109.8,141.7,70.8,141.7z
							 M70.8,8C36.2,8,8,36.2,8,70.9s28.2,62.8,62.8,62.8s62.8-28.2,62.8-62.8S105.4,8,70.8,8z"/></g></g></g></g></g></g></svg>