<svg id="Ebene_1" data-name="Ebene 1" xmlns="http://www.w3.org/2000/svg" viewBox="0 0 141.7 141.7"><defs><style>.cls-1{fill:#fff;}</style></defs><path class="cls-1" d="M70.8,141.7a70.85,70.85,0,1,1,70.9-70.8A70.931,70.931,0,0,1,70.8,141.7ZM70.8,8a62.85,62.85,0,1,0,62.8,62.9A62.928,62.928,0,0,0,70.8,8Z" transform="translate(0)"/><rect class="cls-1" x="90.498" y="107.571" width="8.963" height="2.397" rx="1.199"/><rect class="cls-1" x="88.594" y="103.782" width="12.772" height="2.396" rx="1.198"/><path class="cls-1" d="M115.18,71.345l-3.31-.383a16.885,16.885,0,0,0-1.394-3.38l2.056-2.614a1.91,1.91,0,0,0-.14-2.509l-3.9-3.9a1.91,1.91,0,0,0-2.509-.14l-2.614,2.056a15.789,15.789,0,0,0-3.345-1.394l-.384-3.31A1.914,1.914,0,0,0,97.755,54.1H92.249a1.915,1.915,0,0,0-1.882,1.673l-.383,3.31A16.917,16.917,0,0,0,86.6,60.472L83.99,58.416a1.912,1.912,0,0,0-2.51.14l-3.9,3.9a1.91,1.91,0,0,0-.139,2.509l2.056,2.614a16.768,16.768,0,0,0-1.394,3.38l-3.311.383a1.915,1.915,0,0,0-1.673,1.882v5.506a1.914,1.914,0,0,0,1.673,1.882L78.1,81a18.732,18.732,0,0,0,1.394,3.345l-2.056,2.614a1.91,1.91,0,0,0,.139,2.509l3.9,3.9a1.912,1.912,0,0,0,2.51.139l1.6-1.262a15.713,15.713,0,0,1,1.694,5.484,4.363,4.363,0,0,0,4.483,4.481c1.073,0,2.146,0,3.219,0v0c1.146,0,2.292.018,3.438,0a4.274,4.274,0,0,0,4.176-3.714c.1-.863.174-1.288.371-2.314a13.809,13.809,0,0,1,1.392-3.936l1.613,1.268a1.91,1.91,0,0,0,2.509-.139l3.9-3.9a1.91,1.91,0,0,0,.14-2.509l-2.056-2.614A15.81,15.81,0,0,0,111.87,81l3.31-.384a1.914,1.914,0,0,0,1.673-1.882V73.227A1.915,1.915,0,0,0,115.18,71.345ZM104.29,85.028a18.142,18.142,0,0,0-4.1,6.088h0c-.792,1.66-1.105,5.585-1.116,6.625A1.076,1.076,0,0,1,97.918,98.9q-2.991.006-5.981,0a1.089,1.089,0,0,1-1.183-1.189A30.468,30.468,0,0,0,89.622,91.1l0,0c-1.407-4.332-5.88-6.723-7.231-11.04-3.211-8.543,4-18.284,13.127-17.637C106.828,62.789,112.519,77.143,104.29,85.028Z" transform="translate(0)"/><path class="cls-1" d="M49.138,47.67a2.408,2.408,0,1,0-2.408-2.407A2.441,2.441,0,0,0,49.138,47.67Z" transform="translate(0)"/><path class="cls-1" d="M49.138,70.042a2.377,2.377,0,0,0,2.408-2.408,2.408,2.408,0,1,0-2.408,2.408Z" transform="translate(0)"/><path class="cls-1" d="M49.138,87.7a2.408,2.408,0,1,0,2.408,2.407A2.441,2.441,0,0,0,49.138,87.7Z" transform="translate(0)"/><path class="cls-1" d="M70.035,73.227a4.931,4.931,0,0,1,.873-2.78V69.039l2.006-1.2.93.558a4.6,4.6,0,0,1,.591-.109l1.394-.161.058-.142-.639-.812-1.23-.739V64.547A5,5,0,0,1,75.4,60.28l1.574-1.574H44.523l-.8-1.2H37.3V77.967h6.421l.8-1.2H70.035Zm-2.237-9.2,2.006-1.2,2.007,1.2V66.43l-2.007,1.2L67.8,66.43Zm-18.66,7.925a4.314,4.314,0,1,1,4.314-4.314A4.282,4.282,0,0,1,49.138,71.948Zm12.54-5.518V64.023l2.007-1.2,2.006,1.2V66.43l-2.006,1.2ZM68.8,71.447,66.8,72.65l-2.007-1.2V69.039l2.007-1.2,2.006,1.2Z" transform="translate(0)"/><path class="cls-1" d="M84.206,97.755a4.663,4.663,0,0,0-.163-.911A5.01,5.01,0,0,1,79.3,95.549l-.815-.816-1.358-1.358L75.4,91.646A4.934,4.934,0,0,1,74.02,88.9l0,0v-.013a5.068,5.068,0,0,1,0-1.511l.274-1.048a4.806,4.806,0,0,1,.733-1.29l.867-1.1-.041-.1-1.4-.162a5.006,5.006,0,0,1-3.808-2.6H44.523l-.8-1.2H37.3v20.565h6.421l.8-1.2H84.354A8.234,8.234,0,0,1,84.206,97.755ZM49.138,94.42a4.314,4.314,0,1,1,4.314-4.314A4.282,4.282,0,0,1,49.138,94.42ZM61.678,88.9V86.5l2.007-1.2,2.006,1.2V88.9l-2.006,1.2ZM68.8,93.919l-2.006,1.2-2.007-1.2V91.511l2.007-1.2,2.006,1.2Zm-1-5.017V86.5l2.006-1.2,2.007,1.2V88.9l-2.007,1.2Zm7.123,5.017-2.007,1.2-2.006-1.2V91.511l2.006-1.2,2.007,1.2Z" transform="translate(0)"/><path class="cls-1" d="M92.249,51.013h2.736V35.03H88.564l-.8,1.2H44.523l-.8-1.2H37.3V55.5h6.421l.8-1.2H87.579A5.039,5.039,0,0,1,92.249,51.013ZM49.138,49.476a4.314,4.314,0,1,1,0-8.627,4.345,4.345,0,0,1,4.314,4.313A4.282,4.282,0,0,1,49.138,49.476Zm12.54-5.518V41.551l2.007-1.2,2.006,1.2v2.407l-2.006,1.2ZM68.8,48.975l-2.006,1.2-2.007-1.2V46.567l2.007-1.2,2.006,1.2Zm-1-5.017V41.551l2.006-1.2,2.007,1.2v2.407l-2.007,1.2Zm7.123,5.017-2.007,1.2-2.006-1.2V46.567l2.006-1.2,2.007,1.2Zm-.9-5.017V41.551l2.006-1.2,2.006,1.2v2.407l-2.006,1.2Zm7.122,5.017-2.006,1.2-2.006-1.2V46.567l2.006-1.2,2.006,1.2Zm-.9-5.017V41.551l2.006-1.2,2.006,1.2v2.407l-2.006,1.2Zm5.116,6.22-2.006-1.2V46.567l2.006-1.2,2.006,1.2v2.408Z" transform="translate(0)"/></svg>