<!--Generator: Adobe Illustrator 21.1.0, SVG Export Plug-In . SVG Version: 6.00 Build 0)--><svg id="Ebene_1" xmlns="http://www.w3.org/2000/svg" x="0px" y="0px" viewBox="0 0 141.7 141.7" style="enable-background:new 0 0 141.7 141.7;"><style>.st0{fill:#FFFFFF;}</style><g id="layer1_3_" transform="translate(-318.33375,-439.74274)"><g id="g3460_3_" transform="matrix(4.579965,0,0,-4.579965,468.34291,456.8459)"><path id="path3462_3_" class="st0" d="M-17.3,2.1c-3.8,0-7.3-1.5-9.8-4c-2.5-2.5-4-5.9-4-9.8c0-3.8,1.5-7.3,4-9.8
			c2.5-2.5,5.9-4,9.8-4c3.8,0,7.3,1.5,9.8,4c2.5,2.5,4,5.9,4,9.8c0,3.8-1.5,7.3-4,9.8C-10,0.5-13.5,2.1-17.3,2.1 M-17.3,3.7
			c8.5,0,15.5-6.9,15.5-15.5c0-8.5-6.9-15.5-15.5-15.5c-8.5,0-15.5,6.9-15.5,15.5C-32.8-3.2-25.8,3.7-17.3,3.7"/></g><g id="g3464_1_" transform="matrix(4.579965,0,0,-4.579965,397.87238,588.54693)"><path id="path3466_1_" class="st0" d="M-9.2,17.1c0,0.9-0.6,1.4-1.4,1.4h-0.5v-2.8h0.5C-9.9,15.7-9.2,16.2-9.2,17.1 M0,16.1
			l-3.8-3l-3.5,2.7c-0.5-1.2-1.7-2-3.1-2h-3v6.7h3c1.6,0,2.7-1,3.1-2.1l3.5,2.7l1.3-1l-3.2-2.5l0.6-0.5l3.2,2.5l1.3-1l-3.2-2.5
			l0.6-0.5L0,18.2v2.3h2.3v-4.7h2.3v-2H0C0,13.8,0,16.1,0,16.1z M7.6,15.8h2.3v-1.9H5.3v6.7h2.3V15.8z"/></g></g></svg>