<?xml version="1.0" encoding="utf-8"?>
<!-- Generator: Adobe Illustrator 21.1.0, SVG Export Plug-In . SVG Version: 6.00 Build 0)  -->
<svg version="1.1" id="Ebene_1" xmlns="http://www.w3.org/2000/svg" xmlns:xlink="http://www.w3.org/1999/xlink" x="0px" y="0px"
	 viewBox="0 0 141.7 141.7" style="enable-background:new 0 0 141.7 141.7;" xml:space="preserve">
<style type="text/css">
	.st0{fill:#FFFFFF;}
</style>
<path class="st0" d="M70.9,141.7C31.8,141.7,0,109.9,0,70.9S31.8,0,70.9,0s70.9,31.8,70.9,70.9S109.9,141.7,70.9,141.7z M70.9,8
	C36.2,8,8,36.2,8,70.9s28.2,62.8,62.8,62.8s62.8-28.2,62.8-62.8S105.5,8,70.9,8z M85.7,67.7c10.3,0,18.6,8.3,18.6,18.6
	s-8.3,18.6-18.6,18.6s-18.6-8.3-18.6-18.6S75.5,67.7,85.7,67.7 M85.7,66.1c-11.2,0-20.2,9-20.2,20.2s9,20.2,20.2,20.2
	s20.2-9,20.2-20.2S96.9,66.1,85.7,66.1L85.7,66.1z M85.7,69.1c-9.5,0-17.2,7.7-17.2,17.2s7.7,17.2,17.2,17.2S103,95.8,103,86.3
	S95.3,69.1,85.7,69.1z M89,82.8v2.7h-7.9c0,0.3,0,0.6,0,0.9s0,0.7,0,0.9H89V90h-7.2c1,2.1,2.9,3.1,5,3.1c1.8,0,3.8-0.8,5.1-2.5
	l2.9,3.2c-2.4,2.8-5.6,3.9-8.4,3.9c-4.8,0-8.6-3.1-9.8-7.7h-3.1v-2.7h2.7c0-0.3,0-0.6,0-0.9s0-0.6,0-0.9h-2.7v-2.7h3.1
	c1.2-4.7,4.9-7.9,10.1-7.9c3.8,0,6.2,1.6,8.1,3.8L92,82.4c-1.6-1.9-3.4-2.8-5.4-2.8c-2.1,0-3.9,1-4.9,3.2C81.7,82.8,89,82.8,89,82.8
	z M48.9,83.2L48.2,82h-6.4v20.4h6.4l0.8-1.2h21.6c-3.7-3.8-6-9.1-6-14.8c0-1.1,0.1-2.1,0.3-3.1h-16V83.2z M53.6,96.5
	c-2.4,0-4.3-1.9-4.3-4.3s1.9-4.3,4.3-4.3s4.3,1.9,4.3,4.3C57.9,94.6,56,96.5,53.6,96.5z M53.6,89.8c-1.3,0-2.4,1.1-2.4,2.4
	s1.1,2.4,2.4,2.4s2.4-1.1,2.4-2.4C55.9,90.9,54.9,89.8,53.6,89.8z M92.1,38.5H48.9l-0.8-1.2h-6.4v20.4h6.4l0.8-1.2h43.2l0.8,1.2h6.4
	V37.2h-6.4L92.1,38.5z M53.6,51.8c-2.4,0-4.3-1.9-4.3-4.3c0-2.4,1.9-4.3,4.3-4.3s4.3,1.9,4.3,4.3C57.9,49.8,56,51.8,53.6,51.8z
	 M66.1,46.1v-2.4l2-1.2l2,1.2v2.4l-2,1.2L66.1,46.1z M73.2,51.1l-2,1.2l-2-1.2v-2.4l2-1.2l2,1.2V51.1z M72.3,46.1v-2.4l2-1.2l2,1.2
	v2.4l-2,1.2L72.3,46.1z M79.4,51.1l-2,1.2l-2-1.2v-2.4l2-1.2l2,1.2V51.1z M78.5,46.1v-2.4l2-1.2l2,1.2v2.4l-2,1.2L78.5,46.1z
	 M85.6,51.1l-2,1.2l-2-1.2v-2.4l2-1.2l2,1.2V51.1z M84.7,46.1v-2.4l2-1.2l2,1.2v2.4l-2,1.2L84.7,46.1z M91.8,51.1l-2,1.2l-2-1.2
	v-2.4l2-1.2l2,1.2V51.1z M53.6,67.4c-1.3,0-2.4,1.1-2.4,2.4s1.1,2.4,2.4,2.4s2.4-1.1,2.4-2.4C55.9,68.5,54.9,67.4,53.6,67.4z
	 M53.6,45.1c-1.3,0-2.4,1.1-2.4,2.4c0,1.3,1.1,2.4,2.4,2.4s2.4-1.1,2.4-2.4C55.9,46.1,54.9,45.1,53.6,45.1z M99.3,59.6h-6.4
	l-0.8,1.2H48.9l-0.8-1.2h-6.4V80h6.4l0.8-1.2h17c0.8-2.1,1.9-4,3.2-5.7v-2l2-1.2l0.6,0.4c0.5-0.4,1-0.8,1.5-1.2l-1.1-0.6v-2.4l2-1.2
	l2,1.2v1.2c0.7-0.3,1.4-0.6,2.1-0.9v-0.3l2-1.2l1,0.6c1.4-0.3,2.8-0.4,4.3-0.4c0.2,0,0.4,0,0.7,0l0.3-0.2l0.4,0.2
	c4.6,0.3,8.8,2,12.2,4.8V59.6H99.3z M53.6,74.1c-2.4,0-4.3-1.9-4.3-4.3s1.9-4.3,4.3-4.3s4.3,1.9,4.3,4.3S56,74.1,53.6,74.1z
	 M70.1,68.5l-2,1.2l-2-1.2v-2.4l2-1.2l2,1.2V68.5z"/>
</svg>
