<?xml version="1.0" encoding="utf-8"?>
<!-- Generator: Adobe Illustrator 21.1.0, SVG Export Plug-In . SVG Version: 6.00 Build 0)  -->
<svg version="1.1" id="Ebene_1" xmlns="http://www.w3.org/2000/svg" xmlns:xlink="http://www.w3.org/1999/xlink" x="0px" y="0px"
	 viewBox="0 0 141.7 141.7" style="enable-background:new 0 0 141.7 141.7;" xml:space="preserve">
<style type="text/css">
	.st0{fill:#FFFFFF;}
</style>
<g>
	<g>
		<g>
			<path class="st0" d="M70.9,141.7C31.8,141.7,0,109.9,0,70.9S31.8,0,70.9,0s70.9,31.8,70.9,70.9S109.9,141.7,70.9,141.7z M70.9,8
				C36.2,8,8,36.2,8,70.9s28.2,62.8,62.8,62.8s62.8-28.2,62.8-62.8S105.5,8,70.9,8z"/>
		</g>
	</g>
</g>
<path class="st0" d="M70.8,141.7c-39.1,0-70.9-31.8-70.9-70.8S31.7,0,70.8,0s70.9,31.8,70.9,70.9S109.8,141.7,70.8,141.7z M70.8,8
	C36.1,8,7.9,36.2,7.9,70.9s28.2,62.8,62.8,62.8s62.8-28.2,62.8-62.8S105.4,8,70.8,8z M63.7,68.9c0-2.7-2.2-4.8-4.8-4.8
	c-2.7,0-4.8,2.2-4.8,4.8c0,2.7,2.2,4.8,4.8,4.8C61.6,73.8,63.7,71.6,63.7,68.9z M82.8,64.1c-2.7,0-4.8,2.2-4.8,4.8
	c0,2.7,2.2,4.8,4.8,4.8c2.7,0,4.8-2.2,4.8-4.8C87.6,66.3,85.5,64.1,82.8,64.1z M96.1,44.5L93,46.2H72.6V34.5
	c2.1-0.7,3.7-2.8,3.7-5.2c0-3-2.5-5.5-5.5-5.5c-3,0-5.5,2.5-5.5,5.5c0,2.4,1.6,4.4,3.7,5.2v11.8H48.7l-3.1-1.8h-4.7v5.4v50.6h13.8
	v5.4H87v-5.4h13.8V49.9v-5.4H96.1z M49.6,68.9c0-5.1,4.2-9.3,9.3-9.3c5.1,0,9.3,4.2,9.3,9.3c0,5.1-4.2,9.3-9.3,9.3
	C53.8,78.2,49.6,74.1,49.6,68.9z M85.9,86.3v6.1H55.8v-6.1H85.9z M82.8,78.2c-5.1,0-9.3-4.2-9.3-9.3c0-5.1,4.2-9.3,9.3-9.3
	c5.1,0,9.3,4.2,9.3,9.3C92.1,74.1,87.9,78.2,82.8,78.2z"/>
</svg>
