<svg xmlns="http://www.w3.org/2000/svg" viewBox="0 0 141.7 141.7"><path d="M70.8 141.7c-39 0-70.8-31.8-70.8-70.8S31.8 0 70.8 0s70.9 31.8 70.9 70.9-31.9 70.8-70.9 70.8zM70.8 8C36.2 8 8 36.2 8 70.9s28.2 62.8 62.8 62.8 62.8-28.2 62.8-62.8S105.4 8 70.8 8zM63 88.6l-3.2-1.9A17.63 17.63 0 0 1 49 88.1l-.1-.1c-2.3-.4-4.5-1.3-6.4-2.6h-.9C35.2 85.4 30 90.6 30 97c0 6.4 5.2 11.6 11.6 11.6 6.4 0 11.6-5.2 11.6-11.6 0-.8-.1-1.6-.2-2.3l10-6.1zm34.6-18.1c0-4.8-2.9-8.8-7-10.6l-16.1 9.3c0 .4-.1.9-.1 1.3 0 .6 0 1.1.1 1.6L90 81.4c4.4-1.6 7.6-5.9 7.6-10.9zM41.5 56.3c3-2.3 6.7-3.6 10.7-3.6 2.8 0 5.4.6 7.8 1.8l3.1-1.8-10.2-6c.1-.6.2-1.3.2-2 0-6.4-5.2-11.6-11.6-11.6-6.4 0-11.6 5.2-11.6 11.6.1 6.4 5.3 11.6 11.6 11.6zm57.9 30c-3 0-5.8 1.1-7.9 2.9L64.3 73c.2-.8.3-1.6.3-2.5 0-.8-.1-1.6-.2-2.4l26.9-15.8c2.2 2 5 3.1 8.2 3.1 6.8 0 12.3-5.5 12.3-12.3s-5.5-12.3-12.3-12.3c-6.8 0-12.3 5.5-12.3 12.3 0 .7.1 1.4.2 2.1l-27.2 16c-2.1-1.8-4.9-2.9-8-2.9-6.8 0-12.3 5.5-12.3 12.3 0 6.8 5.5 12.3 12.3 12.3 3 0 5.8-1.1 7.9-2.9l27.2 16.2c-.2.8-.3 1.6-.3 2.5 0 6.8 5.5 12.3 12.3 12.3 6.8 0 12.3-5.5 12.3-12.3s-5.4-12.4-12.2-12.4z" fill="#fff"/></svg>