<?xml version="1.0" encoding="utf-8"?>
<!-- Generator: Adobe Illustrator 21.0.2, SVG Export Plug-In . SVG Version: 6.00 Build 0)  -->
<svg version="1.1" id="Ebene_1" xmlns="http://www.w3.org/2000/svg" xmlns:xlink="http://www.w3.org/1999/xlink" x="0px" y="0px"
	 viewBox="0 0 141.7 141.7" style="enable-background:new 0 0 141.7 141.7;" xml:space="preserve">
<style type="text/css">
	.st0{fill:#FFFFFF;}
</style>
<g>
	<g>
		<g>
			<g>
				<path class="st0" d="M70.8,141.7C31.8,141.7,0,109.9,0,70.9S31.8,0,70.8,0s70.9,31.8,70.9,70.9S109.8,141.7,70.8,141.7z M70.8,8
					C36.1,8,8,36.2,8,70.9s28.2,62.8,62.8,62.8s62.8-28.2,62.8-62.8S105.4,8,70.8,8z"/>
			</g>
		</g>
	</g>
	<g>
		<polygon class="st0" points="26.8,93.2 47.6,105.3 47.6,81.2 26.8,69.2 		"/>
		<path class="st0" d="M51.9,54.6v-14l13.5,13.5l3-3L49.7,32.4l0,0l-3,3L31.2,51.1l3,3l13.5-13.5v14L29,65.4l20.9,12l20.9-12
			L51.9,54.6z M49.7,71.2c-5.5,0-10-2.8-10-6.2c0-3,3.4-5.5,7.9-6.1v5.7h4.3v-5.7c4.5,0.6,7.9,3.1,7.9,6.1
			C59.7,68.4,55.3,71.2,49.7,71.2z"/>
		<polygon class="st0" points="72.7,69.2 51.9,81.2 51.9,105.3 72.7,93.2 		"/>
		<path class="st0" d="M118.9,67.9c-1.2-2.8-2.9-5.4-5.1-7.6c-4.5-4.6-10.5-7.1-16.9-7.1c-1.4-3.1-3.3-6-5.8-8.5
			c-5-5-11.7-7.9-18.7-8.2c-0.1,0-0.1,0-0.2,0c-0.3,0-0.6,0-1,0c-3.7,0-7.4,0.7-10.7,2.1l3.4,3.4c2.3-0.8,4.8-1.2,7.3-1.2
			c0.3,0,0.6,0,0.9,0h0.1c10.1,0.4,18.9,7.4,21.7,17l0,0c0.6,2.2,1,4.4,1,6.8c0,3.9-1,7.7-2.7,10.9l3.7,2.2c2.1-4,3.2-8.5,3.2-13.1
			c0-2.4-0.3-4.8-0.9-7c10.2,0.8,18,9.4,18,19.5c0,10.6-8.7,19.2-18.6,19.2h-0.3H74l-7.4,4.3h31.1h0.2c3,0,6-0.6,8.8-1.9
			c2.7-1.2,5.2-2.9,7.3-5.1c4.4-4.5,6.8-10.4,6.8-16.6C120.8,73.9,120.2,70.8,118.9,67.9z"/>
	</g>
</g>
</svg>
