<?xml version="1.0" encoding="utf-8"?>
<!-- Generator: Adobe Illustrator 21.1.0, SVG Export Plug-In . SVG Version: 6.00 Build 0)  -->
<svg version="1.1" id="Ebene_1" xmlns="http://www.w3.org/2000/svg" xmlns:xlink="http://www.w3.org/1999/xlink" x="0px" y="0px"
	 viewBox="0 0 141.7 141.7" style="enable-background:new 0 0 141.7 141.7;" xml:space="preserve">
<style type="text/css">
	.st0{fill:#FFFFFF;}
</style>
<path class="st0" d="M70.5,141.7c-39.1,0-70.9-31.8-70.9-70.8S31.4,0,70.5,0s70.9,31.8,70.9,70.9S109.5,141.7,70.5,141.7z M70.5,8
	C35.8,8,7.6,36.2,7.6,70.9s28.2,62.8,62.8,62.8s62.8-28.2,62.8-62.8S105.1,8,70.5,8z M92.9,54.4l-0.8,1.3H90V41.2
	c0-10-7.7-16.5-19.5-16.5S51,31.2,51,41.2v14.5h-2.1l-0.8-1.2h-6.4v50.4h6.4l0.8-1.2h43.2l0.8,1.2h6.4V54.4H92.9z M58.3,41.2
	c0-8.3,8.5-9.2,12.2-9.2s12.2,0.9,12.2,9.2v14.5H58.3V41.2z M83.7,89.8H57.3c-5.6,0-10.2-4.6-10.2-10.2s4.6-10.2,10.2-10.2h26.4
	c5.6,0,10.2,4.6,10.2,10.2S89.3,89.8,83.7,89.8z M60.7,75.6c-0.8-0.3-1.5-0.4-2.1-0.4c-0.5,0-1,0.1-1.3,0.3
	c-0.3,0.2-0.5,0.5-0.5,0.9c0,0.5,0.2,0.9,0.7,1.1c0.5,0.3,1.2,0.5,2.1,0.8s1.8,0.6,2.4,0.8c0.6,0.3,1.2,0.7,1.6,1.3
	c0.4,0.6,0.7,1.3,0.7,2.2c0,0.9-0.2,1.7-0.7,2.3c-0.5,0.6-1.1,1.1-1.9,1.5c-0.8,0.3-1.8,0.5-2.8,0.5c-1.1,0-2.2-0.2-3.3-0.6
	s-2-0.9-2.8-1.6l1.3-2.6c0.7,0.6,1.5,1.2,2.4,1.5s1.8,0.6,2.5,0.6s1.2-0.1,1.5-0.4c0.4-0.2,0.5-0.6,0.5-1s-0.1-0.7-0.4-0.9
	c-0.2-0.2-0.6-0.4-0.9-0.6c-0.4-0.1-0.9-0.3-1.6-0.5c-1-0.3-1.7-0.5-2.4-0.8s-1.1-0.7-1.6-1.2c-0.4-0.5-0.7-1.3-0.7-2.2
	c0-0.8,0.2-1.6,0.7-2.2s1.1-1.1,1.9-1.5c0.8-0.3,1.8-0.5,2.8-0.5s1.9,0.1,2.8,0.4s1.8,0.7,2.5,1.1L63,76.6
	C62.3,76.2,61.5,75.9,60.7,75.6z M73.5,75.6c-0.8-0.3-1.5-0.4-2.1-0.4c-0.5,0-1,0.1-1.3,0.3c-0.3,0.2-0.5,0.5-0.5,0.9
	c0,0.5,0.2,0.9,0.7,1.1c0.5,0.3,1.2,0.5,2.1,0.8s1.8,0.6,2.4,0.8c0.6,0.3,1.2,0.7,1.6,1.3c0.4,0.6,0.7,1.3,0.7,2.2
	c0,0.9-0.2,1.7-0.7,2.3c-0.5,0.6-1.1,1.1-1.9,1.5c-0.8,0.3-1.8,0.5-2.8,0.5c-1.1,0-2.2-0.2-3.3-0.6c-1.1-0.4-2-0.9-2.8-1.6l1.3-2.6
	c0.7,0.6,1.5,1.2,2.4,1.5s1.8,0.6,2.5,0.6s1.2-0.1,1.5-0.4c0.4-0.2,0.5-0.6,0.5-1s-0.1-0.7-0.4-0.9c-0.2-0.2-0.6-0.4-0.9-0.6
	c-0.4-0.1-0.9-0.3-1.6-0.5c-1-0.3-1.7-0.5-2.4-0.8s-1.1-0.7-1.6-1.2c-0.4-0.5-0.7-1.3-0.7-2.2c0-0.8,0.2-1.6,0.7-2.2
	s1.1-1.1,1.9-1.5c0.8-0.3,1.8-0.5,2.8-0.5s1.9,0.1,2.8,0.4s1.8,0.7,2.5,1.1l-1.2,2.6C75,76.2,74.3,75.9,73.5,75.6z M79.3,72.7h3.2
	V84h6v2.8h-9.2V72.7z"/>
</svg>
