<svg version="1.1" id="Ebene_1" xmlns="http://www.w3.org/2000/svg" x="0" y="0" viewBox="0 0 141.7 141.7" xml:space="preserve"><style>.st0{fill:#fff}</style><path class="st0" d="M70.8 141.7c-39 0-70.8-31.8-70.8-70.9S31.8 0 70.8 0s70.8 31.8 70.8 70.8-31.7 70.9-70.8 70.9zM70.8 8C36.2 8 8 36.2 8 70.8s28.2 62.8 62.8 62.8 62.8-28.2 62.8-62.8S105.5 8 70.8 8z"/><path class="st0" d="M34.4 60.3c0 3.6-2.9 6.5-6.5 6.5s-6.5-2.9-6.5-6.5 2.9-6.5 6.5-6.5 6.5 2.9 6.5 6.5zm45.7 47.1c-3.6 0-6.5 2.9-6.5 6.5s2.9 6.5 6.5 6.5 6.5-2.9 6.5-6.5-2.9-6.5-6.5-6.5zm33-55.6c-3.6 0-6.5 2.9-6.5 6.5s2.9 6.5 6.5 6.5 6.5-2.9 6.5-6.5-2.9-6.5-6.5-6.5zm-77.5 1.5c6.4-12.9 19.7-21.7 35-21.8-.4-1.2-.7-2.4-.7-3.7 0-.3 0-.7.1-1-16.7.2-31.2 9.8-38.4 23.8 1.5.5 2.9 1.5 4 2.7zm52-18c7.4 3.5 13.5 9.2 17.5 16.3 1-1.2 2.4-2.2 3.9-2.9-4.4-7.5-10.9-13.6-18.7-17.5-.6 1.6-1.5 3-2.7 4.1zm27.2 33.3c0 .8.1 1.5.1 2.3 0 17.5-10.2 32.6-24.9 39.7-.5-1.6-1.4-2.9-2.6-4.1 13.4-6.3 22.7-19.9 22.7-35.6 0-.8 0-1.7-.1-2.5-5.8 9.2-12.3 16.8-19.4 22.7-2.4 2-4.9 3.8-7.4 5.4.2 2.4.3 4.9.2 7.6-1-.3-2.1-.5-3.3-.5-.5 0-1 0-1.5.1 0-1.5 0-3-.1-4.4-2.1 1.1-4.2 2.1-6.3 3 1 .9 1.9 1.8 2.8 2.7-1.4.8-2.6 1.9-3.5 3.3-1.3-1.3-2.8-2.7-4.3-4.2l-.9.3c-4.5 1.3-8.7 1.9-12.3 2.1 5 2.4 10.6 3.7 16.5 3.8-.5 1.2-.7 2.5-.7 3.8v1c-10.2-.2-19.5-3.9-26.9-9.9-.5-.4-.9-.8-1.4-1.2l-.1-.1c-.4-.4-.9-.8-1.3-1.2l-.1-.1c-5.1-5-9-11.2-11.3-18.2-1.3-4.2-2.1-8.7-2.1-13.4v-.1c.4 0 .8.1 1.3.1 1.2 0 2.4-.2 3.5-.6v.7c0 2.1.2 4.2.5 6.2 4.4-2.5 11.3-6.8 18.5-12.6-2.6-.7-5.1-1.1-7.3-1.4-1.8-.2-3.5-.4-5-.4.1-.7.2-1.4.2-2.2 0-.9-.1-1.8-.3-2.6 1.8.1 3.7.2 5.7.5 3.9.5 7.7 1.3 11.1 2.4 3.2-2.9 6.4-6 9.4-9.5-8.4.5-17.5 2.2-26.3 6.3-.4-1.6-1.3-3-2.3-4.2 9.8-4.6 20.8-6.9 32.6-7 2.3-3.1 4.4-6.4 6.2-9.9 1.3.9 2.8 1.5 4.5 1.8-1.4 2.9-3.1 5.7-4.9 8.3 2.6.1 5.2.4 7.8.7-.2-3.3-.6-6.3-1.1-8.9 1.7-.1 3.3-.5 4.7-1.3.6 3.1 1.1 6.8 1.3 10.9 7.1 1.2 13.2 3 17.8 4.5-.9 1.3-1.5 2.8-1.8 4.5-4.3-1.4-9.8-3-16.1-4.1-.3 6.6-1.6 13.8-4.9 20.9-1 2-2 4-3.3 5.9 1.8 3.5 3.2 7.4 4 11.7 8.7-6 16.6-14.6 23.4-25.3 1.9 1.8 4.4 2.9 7.2 2.9.7-.5 1.3-.5 1.8-.6zm-54.9-6c4.8 2.2 9 5 12.4 8.4 1.2 1.2 2.3 2.6 3.4 4 .6-1.1 1.2-2.2 1.7-3.3 3.1-6.7 4.3-13.5 4.5-19.7-3.5-.5-7.3-.8-11.3-.9-3.4 4.2-7.1 8.1-10.7 11.5zM36.1 80.1c8.3 1.7 16.4 6.3 23.5 11.4 5.3-3.5 9.7-7.6 13.2-12.3-1.1-1.8-2.5-3.4-3.9-4.9-3.8-3.9-8.4-6.5-12.9-8.3-1.3 1.1-2.6 2.2-3.8 3.1-6.2 4.9-11.9 8.5-16.1 11zm7.7 19.3c4.1-1.5 7.9-3.2 11.4-5.1-6.6-4.6-14-8.5-21.2-9.7 2.1 5.6 5.5 10.7 9.8 14.8zm19 .8c-1.1-.9-2.3-1.9-3.5-2.8-2.6 1.6-5.4 3-8.4 4.3 3.4-.1 7.4-.4 11.9-1.5zM78.1 94c-.5-3.7-1.5-7-2.8-10.1-3.2 4-7.1 7.5-11.6 10.7 1.6 1.3 3.2 2.6 4.7 3.9 3.2-1.1 6.5-2.7 9.7-4.5zm2.3-72.8c-3.6 0-6.5 2.9-6.5 6.5s2.9 6.5 6.5 6.5 6.5-2.9 6.5-6.5-2.9-6.5-6.5-6.5z"/></svg>